# Blender v2.69 (sub 0) OBJ File: ''
# www.blender.org
mtllib brushed_metal.mtl
o Cube_Cube.001
v -0.050000 -0.050000 0.050000
v -0.050000 -0.050000 -0.050000
v 0.050000 -0.050000 -0.050000
v 0.050000 -0.050000 0.050000
v -0.050000 0.050000 0.050000
v -0.050000 0.050000 -0.050000
v 0.050000 0.050000 -0.050000
v 0.050000 0.050000 0.050000
vt 1.000000 0.000000
vt 1.000000 0.333333
vt 0.666667 0.000000
vt 0.000000 0.333333
vt 0.000000 0.000000
vt 0.333333 0.333333
vt 0.666667 0.333333
vt 1.000000 0.666667
vt 0.666667 0.666667
vt 0.333333 0.666667
vt 0.000000 0.666667
vt 0.333333 0.000000
vn -1.000000 0.000000 0.000000
vn 0.000000 0.000000 -1.000000
vn 1.000000 0.000000 0.000000
vn 0.000000 0.000000 1.000000
vn 0.000000 -1.000000 0.000000
vn 0.000000 1.000000 0.000000
usemtl Material.001
s off
f 5/1/1 6/2/1 1/3/1
f 6/4/2 7/5/2 2/6/2
f 7/7/3 8/6/3 3/3/3
f 8/8/4 5/9/4 4/2/4
f 1/9/5 2/10/5 4/7/5
f 8/4/6 7/6/6 5/11/6
f 6/2/1 2/7/1 1/3/1
f 7/5/2 3/12/2 2/6/2
f 8/6/3 4/12/3 3/3/3
f 5/9/4 1/7/4 4/2/4
f 2/10/5 3/6/5 4/7/5
f 7/6/6 6/10/6 5/11/6
