# Blender v2.69 (sub 0) OBJ File: ''
# www.blender.org
mtllib metal.mtl
o Cylinder_Cylinder.005
v 0.000000 -0.010000 -0.004700
v 0.000000 0.010000 -0.004700
v 0.000917 -0.010000 -0.004610
v 0.000917 0.010000 -0.004610
v 0.001799 -0.010000 -0.004342
v 0.001799 0.010000 -0.004342
v 0.002611 -0.010000 -0.003908
v 0.002611 0.010000 -0.003908
v 0.003323 -0.010000 -0.003323
v 0.003323 0.010000 -0.003323
v 0.003908 -0.010000 -0.002611
v 0.003908 0.010000 -0.002611
v 0.004342 -0.010000 -0.001799
v 0.004342 0.010000 -0.001799
v 0.004610 -0.010000 -0.000917
v 0.004610 0.010000 -0.000917
v 0.004700 -0.010000 -0.000000
v 0.004700 0.010000 -0.000000
v 0.004610 -0.010000 0.000917
v 0.004610 0.010000 0.000917
v 0.004342 -0.010000 0.001799
v 0.004342 0.010000 0.001799
v 0.003908 -0.010000 0.002611
v 0.003908 0.010000 0.002611
v 0.003323 -0.010000 0.003323
v 0.003323 0.010000 0.003323
v 0.002611 -0.010000 0.003908
v 0.002611 0.010000 0.003908
v 0.001799 -0.010000 0.004342
v 0.001799 0.010000 0.004342
v 0.000917 -0.010000 0.004610
v 0.000917 0.010000 0.004610
v -0.000000 -0.010000 0.004700
v -0.000000 0.010000 0.004700
v -0.000917 -0.010000 0.004610
v -0.000917 0.010000 0.004610
v -0.001799 -0.010000 0.004342
v -0.001799 0.010000 0.004342
v -0.002611 -0.010000 0.003908
v -0.002611 0.010000 0.003908
v -0.003323 -0.010000 0.003323
v -0.003323 0.010000 0.003323
v -0.003908 -0.010000 0.002611
v -0.003908 0.010000 0.002611
v -0.004342 -0.010000 0.001799
v -0.004342 0.010000 0.001799
v -0.004610 -0.010000 0.000917
v -0.004610 0.010000 0.000917
v -0.004700 -0.010000 -0.000000
v -0.004700 0.010000 -0.000000
v -0.004610 -0.010000 -0.000917
v -0.004610 0.010000 -0.000917
v -0.004342 -0.010000 -0.001799
v -0.004342 0.010000 -0.001799
v -0.003908 -0.010000 -0.002611
v -0.003908 0.010000 -0.002611
v -0.003323 -0.010000 -0.003323
v -0.003323 0.010000 -0.003323
v -0.002611 -0.010000 -0.003908
v -0.002611 0.010000 -0.003908
v -0.001799 -0.010000 -0.004342
v -0.001799 0.010000 -0.004342
v -0.000917 -0.010000 -0.004610
v -0.000917 0.010000 -0.004610
vt 0.140204 0.000000
vt 0.140204 0.684952
vt 0.108649 0.000000
vt 0.108650 0.684952
vt 0.077701 0.000000
vt 0.077701 0.684952
vt 0.048549 0.000000
vt 0.048549 0.684952
vt 0.022312 0.000000
vt 0.022312 0.684952
vt 0.000000 0.000000
vt 0.475394 0.684952
vt 0.475394 0.000000
vt 0.501631 0.684952
vt 0.501631 0.000000
vt 0.530783 0.684952
vt 0.530783 0.000000
vt 0.561731 0.684952
vt 0.561731 0.000000
vt 0.593286 0.684952
vt 0.593286 0.000000
vt 0.624234 0.684952
vt 0.624234 0.000000
vt 0.653386 0.684952
vt 0.653386 0.000000
vt 0.679623 0.684952
vt 0.449158 0.000000
vt 0.449158 0.684952
vt 0.420005 0.000000
vt 0.420005 0.684952
vt 0.389057 0.000000
vt 0.389057 0.684952
vt 0.357503 0.000000
vt 0.357503 0.684952
vt 0.326555 0.000000
vt 0.326555 0.684952
vt 0.297402 0.000000
vt 0.297402 0.684952
vt 0.271166 0.000000
vt 0.271166 0.684952
vt 0.248853 0.000000
vt 0.000000 0.684952
vt 0.684952 0.684952
vt 0.000000 0.711189
vt 0.684952 0.711188
vt 0.000000 0.740341
vt 0.684952 0.740341
vt 0.000000 0.771289
vt 0.684952 0.771289
vt 0.000000 0.802844
vt 0.684952 0.802844
vt 0.000000 0.833792
vt 0.684952 0.833792
vt 0.000000 0.862944
vt 0.684952 0.862944
vt 0.000000 0.889181
vt 0.684952 0.889181
vt 0.000000 0.911493
vt 0.248853 0.684952
vt 0.226541 0.000000
vt 0.226541 0.684952
vt 0.200304 0.000000
vt 1.000000 0.144411
vt 1.000000 0.175966
vt 0.993844 0.113463
vt 0.171152 0.000000
vt 0.171152 0.684952
vt 0.200304 0.684952
vt 0.763934 0.338609
vt 0.793086 0.326533
vt 0.737697 0.356139
vt 0.679623 0.000000
vt 0.684952 0.911493
vt 0.993844 0.206914
vt 0.981769 0.236066
vt 0.964238 0.262303
vt 0.941926 0.284615
vt 0.915689 0.302146
vt 0.886537 0.314221
vt 0.855589 0.320377
vt 0.824034 0.320377
vt 0.793086 0.314221
vt 0.763934 0.302146
vt 0.737697 0.284615
vt 0.679623 0.144411
vt 0.685779 0.206914
vt 0.679623 0.175966
vt 0.697854 0.236066
vt 0.685779 0.113463
vt 0.715385 0.262303
vt 0.697854 0.084311
vt 0.715385 0.058074
vt 0.737697 0.035762
vt 0.763934 0.018231
vt 0.855589 0.000000
vt 0.793086 0.006156
vt 0.824034 0.000000
vt 0.886537 0.006156
vt 0.915689 0.018231
vt 0.981769 0.084311
vt 0.964238 0.058074
vt 0.941926 0.035762
vt 0.886537 0.326533
vt 0.915689 0.338609
vt 0.941926 0.356139
vt 0.964238 0.378452
vt 0.981769 0.404688
vt 0.993844 0.433840
vt 1.000000 0.464789
vt 1.000000 0.496343
vt 0.993844 0.527291
vt 0.981769 0.556444
vt 0.855589 0.640754
vt 0.915689 0.622523
vt 0.886537 0.634598
vt 0.941926 0.604992
vt 0.824034 0.640754
vt 0.964238 0.582680
vt 0.793086 0.634598
vt 0.763934 0.622523
vt 0.737697 0.604992
vt 0.715385 0.582680
vt 0.679623 0.464788
vt 0.685779 0.527291
vt 0.679623 0.496343
vt 0.697854 0.556444
vt 0.715385 0.378451
vt 0.685779 0.433840
vt 0.697854 0.404688
vn 0.098017 0.000000 -0.995185
vn 0.290285 0.000000 -0.956940
vn 0.471397 0.000000 -0.881921
vn 0.634393 0.000000 -0.773011
vn 0.773010 0.000000 -0.634393
vn 0.881921 0.000000 -0.471397
vn 0.956940 0.000000 -0.290285
vn 0.995185 0.000000 -0.098017
vn 0.995185 0.000000 0.098017
vn 0.956940 0.000000 0.290285
vn 0.881921 0.000000 0.471396
vn 0.773010 0.000000 0.634393
vn 0.634393 0.000000 0.773011
vn 0.471397 0.000000 0.881921
vn 0.290284 0.000000 0.956941
vn 0.098016 0.000000 0.995185
vn -0.098017 0.000000 0.995185
vn -0.290286 0.000000 0.956940
vn -0.471397 0.000000 0.881921
vn -0.634393 0.000000 0.773010
vn -0.773011 0.000000 0.634393
vn -0.881922 0.000000 0.471396
vn -0.956941 0.000000 0.290284
vn -0.995185 0.000000 0.098016
vn -0.995185 0.000000 -0.098018
vn -0.956940 0.000000 -0.290286
vn -0.881921 0.000000 -0.471397
vn -0.773009 0.000000 -0.634394
vn -0.634392 0.000000 -0.773011
vn -0.471396 0.000000 -0.881922
vn 0.000000 1.000000 -0.000022
vn -0.098017 0.000000 -0.995185
vn -0.290283 0.000000 -0.956941
vn 0.000000 -1.000000 0.000000
vn 0.634393 0.000000 -0.773010
vn 0.956940 0.000000 -0.290284
vn 0.881922 0.000000 0.471396
vn 0.634394 0.000000 0.773010
vn 0.290285 0.000000 0.956940
vn 0.098017 0.000000 0.995185
vn -0.290285 0.000000 0.956940
vn -0.634394 0.000000 0.773010
vn -0.773010 0.000000 -0.634394
vn -0.634392 0.000000 -0.773012
vn 0.000000 1.000000 0.000000
vn 0.000000 1.000000 -0.000008
vn 0.000000 1.000000 0.000005
vn 0.000000 1.000000 -0.000003
vn 0.000000 1.000000 0.000003
vn 0.000000 1.000000 -0.000011
vn 0.000000 1.000000 -0.000002
vn 0.000000 1.000000 0.000002
vn 0.000000 1.000000 -0.000001
vn -0.098016 0.000000 -0.995185
vn -0.290282 0.000000 -0.956941
vn 0.000000 -1.000000 -0.000007
vn 0.000000 -1.000000 -0.000008
vn 0.000000 -1.000000 0.000005
vn 0.000000 -1.000000 -0.000003
vn 0.000000 -1.000000 0.000002
vn 0.000000 -1.000000 -0.000001
vn 0.000000 -1.000000 -0.000011
vn 0.000000 -1.000000 -0.000004
vn 0.000000 -1.000000 -0.000002
vn 0.000000 -1.000000 0.000003
vn 0.000000 -1.000000 0.000001
usemtl Material.001
s off
f 1/1/1 2/2/1 3/3/1
f 3/3/2 4/4/2 5/5/2
f 5/5/3 6/6/3 7/7/3
f 7/7/4 8/8/4 9/9/4
f 9/9/5 10/10/5 11/11/5
f 11/12/6 12/13/6 13/14/6
f 13/14/7 14/15/7 15/16/7
f 15/16/8 16/17/8 17/18/8
f 17/18/9 18/19/9 19/20/9
f 19/20/10 20/21/10 21/22/10
f 21/22/11 22/23/11 23/24/11
f 23/24/12 24/25/12 25/26/12
f 25/13/13 26/12/13 27/27/13
f 27/27/14 28/28/14 29/29/14
f 29/29/15 30/30/15 31/31/15
f 31/31/16 32/32/16 33/33/16
f 33/33/17 34/34/17 35/35/17
f 35/35/18 36/36/18 37/37/18
f 37/37/19 38/38/19 39/39/19
f 39/39/20 40/40/20 41/41/20
f 41/42/21 42/43/21 43/44/21
f 43/44/22 44/45/22 45/46/22
f 45/46/23 46/47/23 47/48/23
f 47/48/24 48/49/24 49/50/24
f 49/50/25 50/51/25 51/52/25
f 51/52/26 52/53/26 53/54/26
f 53/54/27 54/55/27 55/56/27
f 55/56/28 56/57/28 57/58/28
f 57/41/29 58/59/29 59/60/29
f 59/60/30 60/61/30 61/62/30
f 4/63/31 2/64/31 6/65/31
f 63/66/32 64/67/32 1/1/32
f 61/62/33 62/68/33 63/66/33
f 1/69/34 3/70/34 63/71/34
f 2/2/1 4/4/1 3/3/1
f 4/4/2 6/6/2 5/5/2
f 6/6/3 8/8/3 7/7/3
f 8/8/35 10/10/35 9/9/35
f 10/10/5 12/42/5 11/11/5
f 12/13/6 14/15/6 13/14/6
f 14/15/36 16/17/36 15/16/36
f 16/17/8 18/19/8 17/18/8
f 18/19/9 20/21/9 19/20/9
f 20/21/10 22/23/10 21/22/10
f 22/23/37 24/25/37 23/24/37
f 24/25/12 26/72/12 25/26/12
f 26/12/38 28/28/38 27/27/38
f 28/28/14 30/30/14 29/29/14
f 30/30/39 32/32/39 31/31/39
f 32/32/40 34/34/40 33/33/40
f 34/34/17 36/36/17 35/35/17
f 36/36/41 38/38/41 37/37/41
f 38/38/19 40/40/19 39/39/19
f 40/40/42 42/59/42 41/41/42
f 42/43/21 44/45/21 43/44/21
f 44/45/22 46/47/22 45/46/22
f 46/47/23 48/49/23 47/48/23
f 48/49/24 50/51/24 49/50/24
f 50/51/25 52/53/25 51/52/25
f 52/53/26 54/55/26 53/54/26
f 54/55/27 56/57/27 55/56/27
f 56/57/43 58/73/43 57/58/43
f 58/59/44 60/61/44 59/60/44
f 60/61/30 62/68/30 61/62/30
f 2/64/45 64/74/45 6/65/45
f 64/74/46 62/75/46 6/65/46
f 62/75/47 60/76/47 6/65/47
f 60/76/48 58/77/48 6/65/48
f 58/77/45 56/78/45 6/65/45
f 56/78/45 54/79/45 6/65/45
f 54/79/45 52/80/45 6/65/45
f 52/80/49 50/81/49 6/65/49
f 50/81/45 48/82/45 6/65/45
f 48/82/45 46/83/45 6/65/45
f 46/83/45 44/84/45 6/65/45
f 34/85/50 38/86/50 36/87/50
f 34/85/45 40/88/45 38/86/45
f 32/89/45 40/88/45 34/85/45
f 42/90/45 40/88/45 32/89/45
f 42/90/51 32/89/51 30/91/51
f 42/90/52 30/91/52 28/92/52
f 44/84/51 42/90/51 28/92/51
f 44/84/52 28/92/52 26/93/52
f 44/84/53 26/93/53 24/94/53
f 18/95/48 22/96/48 20/97/48
f 16/98/45 22/96/45 18/95/45
f 6/65/45 44/84/45 24/94/45
f 14/99/45 22/96/45 16/98/45
f 8/100/53 6/65/53 24/94/53
f 10/101/45 8/100/45 24/94/45
f 12/102/45 10/101/45 24/94/45
f 14/99/45 12/102/45 22/96/45
f 12/102/45 24/94/45 22/96/45
f 64/67/54 2/2/54 1/1/54
f 62/68/55 64/67/55 63/66/55
f 3/70/56 5/81/56 63/71/56
f 5/81/57 7/80/57 63/71/57
f 7/80/58 9/103/58 63/71/58
f 9/103/59 11/104/59 63/71/59
f 11/104/34 13/105/34 63/71/34
f 13/105/34 15/106/34 63/71/34
f 15/106/60 17/107/60 63/71/60
f 17/107/34 19/108/34 63/71/34
f 19/108/34 21/109/34 63/71/34
f 21/109/61 23/110/61 63/71/61
f 23/110/34 25/111/34 63/71/34
f 25/111/34 27/112/34 63/71/34
f 37/113/62 33/114/62 35/115/62
f 37/113/34 31/116/34 33/114/34
f 39/117/34 31/116/34 37/113/34
f 29/118/58 31/116/58 39/117/58
f 29/118/63 39/117/63 41/119/63
f 27/112/60 29/118/60 41/119/60
f 27/112/64 41/119/64 43/120/64
f 27/112/65 43/120/65 45/121/65
f 27/112/34 45/121/34 47/122/34
f 55/123/59 51/124/59 53/125/59
f 55/123/66 49/126/66 51/124/66
f 55/123/61 47/122/61 49/126/61
f 27/112/34 47/122/34 55/123/34
f 61/127/58 57/128/58 59/129/58
f 61/127/56 63/71/56 57/128/56
f 63/71/34 27/112/34 57/128/34
f 27/112/66 55/123/66 57/128/66
